<svg width="1500" height="500" viewBox="0 0 1500 500" fill="none" xmlns="http://www.w3.org/2000/svg">
<path d="M364.144 223.208C364.469 223.452 365.405 223.574 366.951 223.574C368.497 223.574 369.677 222.964 370.491 221.743C371.305 220.522 371.712 218.529 371.712 215.762V211.367C371.712 208.438 371.346 206.362 370.613 205.142C369.962 203.84 368.823 203.188 367.195 203.188C365.649 203.188 364.591 203.351 364.021 203.677C364.103 204.084 364.144 204.775 364.144 205.752V223.208ZM427.132 251.04L448.25 272.646C446.785 285.342 442.757 295.107 436.165 301.943C429.655 308.779 420.621 312.197 409.065 312.197C400.358 312.197 392.789 310.122 386.36 305.972C378.141 300.763 371.997 292.463 367.928 281.069L363.533 269.106C360.115 269.025 355.802 268.577 350.594 267.764C349.943 268.415 349.617 269.31 349.617 270.449C349.617 272.646 352.913 273.949 359.505 274.355L366.463 291.934V302.31C357.104 308.901 345.101 312.197 330.452 312.197C319.954 312.197 311.572 310.041 305.306 305.728C299.039 301.414 295.906 295.148 295.906 286.929V170.962C295.906 167.381 299.202 163.923 305.794 160.586C312.386 157.168 321.012 154.442 331.673 152.407C342.334 150.291 352.994 149.233 363.655 149.233C388.069 149.233 407.153 154.238 420.906 164.248C435.392 174.746 442.635 189.517 442.635 208.56C442.635 219.465 439.542 228.823 433.357 236.636C427.254 244.367 419.523 249.738 410.164 252.749C410.164 255.353 411.71 256.655 414.803 256.655C417.977 256.655 422.086 254.784 427.132 251.04ZM521.614 313.784C499.072 313.784 481.29 307.518 468.27 294.985C454.923 282.371 448.25 265.119 448.25 243.228C448.25 221.255 455.127 203.84 468.88 190.981C481.575 179.019 497.648 173.037 517.098 173.037C536.548 173.037 552.132 178.408 563.851 189.15C575.651 199.811 581.551 212.954 581.551 228.579C581.551 242.495 576.709 252.993 567.024 260.073C558.073 266.746 545.866 270.083 530.403 270.083C518.847 270.083 509.082 267.682 501.106 262.881C500.455 263.369 500.13 264.264 500.13 265.566C500.13 268.008 503.344 270.246 509.773 272.28C516.202 274.478 523.486 275.576 531.624 275.576C539.843 275.576 547.29 274.559 553.963 272.524C560.717 270.409 566.129 267.926 570.198 265.078C572.151 266.787 573.698 269.961 574.837 274.6C576.058 279.157 576.668 283.348 576.668 287.173C576.668 290.916 576.302 294.253 575.569 297.183C569.222 302.554 562.711 306.379 556.038 308.657C546.598 312.075 535.123 313.784 521.614 313.784ZM520.027 231.143C524.096 231.143 526.131 229.596 526.131 226.504C526.131 223.574 523.974 222.109 519.661 222.109C515.348 222.109 512.866 224.429 512.215 229.067C514.493 230.451 517.098 231.143 520.027 231.143ZM786.751 249.575C786.751 255.516 787.402 260.358 788.704 264.102C790.006 267.845 792.285 270.734 795.54 272.769C795.621 273.175 795.662 273.867 795.662 274.844V276.675C795.662 287.824 792.407 296.532 785.896 302.798C779.386 309.064 770.963 312.197 760.628 312.197C750.374 312.197 742.114 309.39 735.848 303.774C728.442 297.264 724.739 287.295 724.739 273.867V235.293C724.739 229.84 722.949 227.114 719.368 227.114C717.985 227.114 716.886 227.44 716.072 228.091L718.27 246.279V273.867C718.27 284.935 720.101 293.317 723.763 299.014C719.856 303.164 714.974 306.419 709.114 308.779C703.336 311.058 697.436 312.197 691.414 312.197C681.648 312.197 674.08 309.837 668.709 305.117C662.199 299.421 658.943 290.428 658.943 278.14V235.293C658.943 229.84 657.153 227.114 653.572 227.114C652.189 227.114 651.09 227.44 650.276 228.091L652.474 246.279V278.628C652.474 287.743 653.694 294.782 656.136 299.746C648.16 307.965 636.971 312.075 622.566 312.075C614.021 312.075 606.819 309.919 600.96 305.605C594.205 300.641 590.828 293.968 590.828 285.586V227.236C586.027 220.482 583.626 212.181 583.626 202.334C583.626 192.406 586.027 183.82 590.828 176.577H620.247C626.025 176.577 630.949 178.734 635.018 183.047C631.437 186.383 629.646 189.15 629.646 191.348C629.646 193.87 631.071 195.132 633.919 195.132C637.5 188.947 642.423 184.023 648.689 180.361C656.014 176.211 664.599 174.136 674.446 174.136C681.933 174.136 688.484 175.723 694.1 178.896C699.796 182.07 704.028 185.732 706.795 189.883C710.62 184.674 715.584 180.768 721.688 178.164C727.872 175.479 734.301 174.136 740.975 174.136C755.704 174.136 767.138 178.693 775.276 187.808C783.252 196.922 787.239 209.414 787.239 225.283L786.751 249.575ZM862.801 242.007V263.369C863.37 263.939 864.306 264.224 865.608 264.224C866.91 264.224 867.846 263.776 868.416 262.881C868.986 261.986 869.271 260.439 869.271 258.242V240.786C869.271 232.974 868.945 227.806 868.294 225.283C867.643 222.679 866.422 221.377 864.632 221.377C863.493 221.377 862.516 221.784 861.702 222.598C862.435 230.654 862.801 237.124 862.801 242.007ZM817.146 296.084C803.8 283.226 797.127 265.811 797.127 243.838C797.127 221.784 803.393 204.409 815.926 191.714C828.54 178.937 845.06 172.549 865.486 172.549C885.913 172.549 902.433 179.181 915.047 192.446C927.579 205.711 933.846 223.005 933.846 244.326C933.846 265.566 927.783 282.453 915.657 294.985C903.613 307.518 887.215 313.784 866.463 313.784C845.711 313.784 829.272 307.884 817.146 296.084ZM998.299 250.308V253.237C998.299 254.621 998.34 255.597 998.421 256.167C999.397 256.574 1000.33 256.777 1001.23 256.777C1003.59 256.777 1004.77 255.19 1004.77 252.017C1004.77 243.716 1005.75 228.091 1007.7 205.142C1008.76 192.69 1009.41 185.366 1009.65 183.169C1017.3 178.042 1026.46 175.479 1037.12 175.479C1047.86 175.479 1056.16 178.327 1062.02 184.023C1067.23 189.232 1069.83 195.986 1069.83 204.287C1069.83 209.902 1069.06 215.721 1067.51 221.743C1059.94 250.959 1052.42 273.949 1044.93 290.713C1040.94 299.421 1034.88 305.361 1026.74 308.535C1020.72 310.977 1012.13 312.197 1000.98 312.197C995.044 312.197 989.144 311.709 983.284 310.732C977.506 309.756 973.071 308.617 969.979 307.314C958.178 283.226 948.453 256.574 940.804 227.358C938.281 224.836 936.124 221.296 934.334 216.738C932.544 212.181 931.648 207.461 931.648 202.578C931.648 192.487 934.09 183.82 938.973 176.577C938.973 176.577 949.104 176.577 969.368 176.577C980.029 176.577 987.964 179.588 993.172 185.61C997.078 190.168 999.601 196.8 1000.74 205.508C999.113 220.645 998.299 235.578 998.299 250.308ZM1144.17 313.784C1121.63 313.784 1103.85 307.518 1090.83 294.985C1077.48 282.371 1070.81 265.119 1070.81 243.228C1070.81 221.255 1077.69 203.84 1091.44 190.981C1104.13 179.019 1120.21 173.037 1139.66 173.037C1159.11 173.037 1174.69 178.408 1186.41 189.15C1198.21 199.811 1204.11 212.954 1204.11 228.579C1204.11 242.495 1199.27 252.993 1189.58 260.073C1180.63 266.746 1168.42 270.083 1152.96 270.083C1141.41 270.083 1131.64 267.682 1123.67 262.881C1123.01 263.369 1122.69 264.264 1122.69 265.566C1122.69 268.008 1125.9 270.246 1132.33 272.28C1138.76 274.478 1146.04 275.576 1154.18 275.576C1162.4 275.576 1169.85 274.559 1176.52 272.524C1183.28 270.409 1188.69 267.926 1192.76 265.078C1194.71 266.787 1196.26 269.961 1197.4 274.6C1198.62 279.157 1199.23 283.348 1199.23 287.173C1199.23 290.916 1198.86 294.253 1198.13 297.183C1191.78 302.554 1185.27 306.379 1178.6 308.657C1169.16 312.075 1157.68 313.784 1144.17 313.784ZM1142.59 231.143C1146.65 231.143 1148.69 229.596 1148.69 226.504C1148.69 223.574 1146.53 222.109 1142.22 222.109C1137.91 222.109 1135.42 224.429 1134.77 229.067C1137.05 230.451 1139.66 231.143 1142.59 231.143Z" fill="#DD8500"/>
</svg>
